# xmcd
#
# Track frame offsets: 
#        150
#        12042
#        28185
#        43907
#        59537
#        76387
#        91417
#        109500
#        125240
#        142905
#
# Disc length: 2127 seconds
#
# Revision: 5
# Processed by: cddbd v1.5PL3 Copyright (c) Steve Scherf et al.
# Submitted via: ExactAudioCopy v0.95a3
#
DISCID=83084d0a
DTITLE=Suzy Bogguss - Give Me Some Wheels
DYEAR=1996
DGENRE=Country
TTITLE0=Give Me Some Wheels
TTITLE1=Feeling 'Bout You
TTITLE2=Let's Get Real
TTITLE3=Traveling Light
TTITLE4=Live To Love Another Day
TTITLE5=No Way Out
TTITLE6=Fall
TTITLE7=Saying Goodbye To A Friend
TTITLE8=She Said, He Heard
TTITLE9=Far And Away
EXTD=(P)+(C) 1996 Capitol Nashville\nCapitol Records 8-36460-2\n
EXTT0=
EXTT1=
EXTT2=
EXTT3=
EXTT4=
EXTT5=
EXTT6=
EXTT7=
EXTT8=
EXTT9=
PLAYORDER=
